<svg width="1440" height="127" viewBox="0 0 1440 127" fill="none" xmlns="http://www.w3.org/2000/svg">
<rect width="1440" height="127" fill="#F5F5F5"/>
<path d="M1440 96.4997V54.4997C1440 54.4997 1363 8.99902 1171 8.99902C1001 22.999 921.5 61.282 764 59.499C606.5 57.716 418 -29.9999 251.5 -30C85 -30.0001 0 29.9535 0 29.9535V96.4997H1440Z" fill="#0898CC"/>
<path d="M1440 127.001V85.0007C1440 85.0007 1363 39.5 1171 39.5C1001 53.5 921.5 91.783 764 90C606.5 88.217 418 0.501055 251.5 0.500977C85 0.500898 0 60.4545 0 60.4545V127.001H1440Z" fill="#FFBB29"/>
</svg>
