<svg width="1440" height="127" viewBox="0 0 1440 127" fill="none" xmlns="http://www.w3.org/2000/svg">
<rect width="1440" height="127" fill="#F5F5F5"/>
<path d="M1440 126.5V84.4997C1440 84.4997 1363 38.999 1171 38.999C1001 52.999 921.5 91.282 764 89.499C606.5 87.716 418 7.8626e-05 251.5 0C85 -7.86259e-05 0 59.9535 0 59.9535V126.5H1440Z" fill="#0898CC"/>
<path d="M1440 157.001V115.001C1440 115.001 1363 69.5 1171 69.5C1001 83.5 921.5 121.783 764 120C606.5 118.217 418 30.5011 251.5 30.501C85 30.5009 0 90.4545 0 90.4545V157.001H1440Z" fill="#FFBB29"/>
</svg>
